<svg width="25" height="26" viewBox="0 0 25 26" fill="none" xmlns="http://www.w3.org/2000/svg">
<path d="M25 12.7867C25 19.8486 19.4036 25.5734 12.5 25.5734C5.59644 25.5734 0 19.8486 0 12.7867C0 5.7248 5.59644 0 12.5 0C19.4036 0 25 5.7248 25 12.7867ZM1.61726 12.7867C1.61726 18.9349 6.48963 23.919 12.5 23.919C18.5104 23.919 23.3827 18.9349 23.3827 12.7867C23.3827 6.63847 18.5104 1.65435 12.5 1.65435C6.48963 1.65435 1.61726 6.63847 1.61726 12.7867Z" fill="black"/>
<rect x="11.8421" y="3.56689" width="1.31579" height="9.62367" rx="0.657895" fill="black"/>
<rect width="1.34597" height="8.15293" rx="0.672983" transform="matrix(0.00419339 0.999991 -0.99999 0.00438795 19.9949 11.9171)" fill="black"/>
</svg>
