<svg width="335" height="335" viewBox="0 0 335 335" fill="none" xmlns="http://www.w3.org/2000/svg">
<g filter="url(#filter0_d)">
<circle cx="165.391" cy="164.916" r="33.7162" fill="url(#paint0_linear)"/>
</g>
<g filter="url(#filter1_d)">
<path d="M117.82 167.333C118.591 83.754 140.455 16.1959 166.654 16.4376C192.853 16.6792 213.466 84.6291 212.695 168.208C211.925 251.787 190.061 319.345 163.862 319.103C137.663 318.861 117.05 250.912 117.82 167.333ZM210.324 168.186C211.056 88.7861 191.473 24.2338 166.584 24.0042C141.695 23.7746 120.925 87.9548 120.192 167.355C119.46 246.754 139.043 311.307 163.932 311.536C188.821 311.766 209.591 247.586 210.324 168.186Z" fill="url(#paint1_linear)"/>
</g>
<g filter="url(#filter2_d)">
<path d="M138.098 202.651C69.5696 154.798 26.1769 98.5916 41.1772 77.1105C56.1775 55.6294 123.891 77.0082 192.418 124.861C260.946 172.715 304.339 228.921 289.339 250.402C274.338 271.883 206.625 250.505 138.098 202.651ZM191.06 126.806C125.959 81.3456 61.6315 61.0357 47.3813 81.4428C33.131 101.85 74.354 155.246 139.456 200.707C204.557 246.167 268.884 266.477 283.135 246.07C297.385 225.663 256.162 172.267 191.06 126.806Z" fill="url(#paint2_linear)"/>
</g>
<g filter="url(#filter3_d)">
<path d="M143.809 122.753C216.052 80.7186 285.299 65.0014 298.475 87.6473C311.651 110.293 263.768 162.727 191.524 204.76C119.28 246.794 50.0338 262.512 36.8576 239.866C23.6814 217.22 71.5651 164.786 143.809 122.753ZM190.331 202.71C258.963 162.778 304.452 112.966 291.935 91.4528C279.417 69.9392 213.633 84.8705 145.002 124.803C76.3702 164.735 30.8807 214.547 43.398 236.06C55.9154 257.574 121.7 242.642 190.331 202.71Z" fill="url(#paint3_linear)"/>
</g>
<g filter="url(#filter4_d)">
<circle r="5.21799" transform="matrix(1 0 0 -1 72.6715 144.445)" fill="#024E95"/>
</g>
<g filter="url(#filter5_d)">
<circle r="5.21799" transform="matrix(1 0 0 -1 81.502 248.805)" fill="#024E95"/>
</g>
<g filter="url(#filter6_d)">
<circle r="5.21799" transform="matrix(1 0 0 -1 274.969 206.258)" fill="#024E95"/>
</g>
<g filter="url(#filter7_d)">
<circle r="5.21799" transform="matrix(1 0 0 -1 136.09 289.853)" fill="#024E95"/>
</g>
<g filter="url(#filter8_d)">
<circle r="5.21799" transform="matrix(1 0 0 -1 194.692 52.9296)" fill="#024E95"/>
</g>
<g filter="url(#filter9_d)">
<circle r="5.21799" transform="matrix(1 0 0 -1 236.436 85.95)" fill="#024E95"/>
</g>
<defs>
<filter id="filter0_d" x="127.675" y="131.199" width="75.4325" height="75.4325" filterUnits="userSpaceOnUse" color-interpolation-filters="sRGB">
<feFlood flood-opacity="0" result="BackgroundImageFix"/>
<feColorMatrix in="SourceAlpha" type="matrix" values="0 0 0 0 0 0 0 0 0 0 0 0 0 0 0 0 0 0 127 0"/>
<feOffset dy="4"/>
<feGaussianBlur stdDeviation="2"/>
<feColorMatrix type="matrix" values="0 0 0 0 0 0 0 0 0 0 0 0 0 0 0 0 0 0 0.25 0"/>
<feBlend mode="normal" in2="BackgroundImageFix" result="effect1_dropShadow"/>
<feBlend mode="normal" in="SourceGraphic" in2="effect1_dropShadow" result="shape"/>
</filter>
<filter id="filter1_d" x="112.425" y="16.0001" width="105.667" height="311.54" filterUnits="userSpaceOnUse" color-interpolation-filters="sRGB">
<feFlood flood-opacity="0" result="BackgroundImageFix"/>
<feColorMatrix in="SourceAlpha" type="matrix" values="0 0 0 0 0 0 0 0 0 0 0 0 0 0 0 0 0 0 127 0"/>
<feOffset dy="4"/>
<feGaussianBlur stdDeviation="2"/>
<feColorMatrix type="matrix" values="0 0 0 0 0 0 0 0 0 0 0 0 0 0 0 0 0 0 0.25 0"/>
<feBlend mode="normal" in2="BackgroundImageFix" result="effect1_dropShadow"/>
<feBlend mode="normal" in="SourceGraphic" in2="effect1_dropShadow" result="shape"/>
</filter>
<filter id="filter2_d" x="10.0168" y="38.2155" width="310.482" height="259.082" filterUnits="userSpaceOnUse" color-interpolation-filters="sRGB">
<feFlood flood-opacity="0" result="BackgroundImageFix"/>
<feColorMatrix in="SourceAlpha" type="matrix" values="0 0 0 0 0 0 0 0 0 0 0 0 0 0 0 0 0 0 127 0"/>
<feOffset dy="4"/>
<feGaussianBlur stdDeviation="2"/>
<feColorMatrix type="matrix" values="0 0 0 0 0 0 0 0 0 0 0 0 0 0 0 0 0 0 0.25 0"/>
<feBlend mode="normal" in2="BackgroundImageFix" result="effect1_dropShadow"/>
<feBlend mode="normal" in="SourceGraphic" in2="effect1_dropShadow" result="shape"/>
</filter>
<filter id="filter3_d" x="9" y="46.6433" width="317.333" height="242.226" filterUnits="userSpaceOnUse" color-interpolation-filters="sRGB">
<feFlood flood-opacity="0" result="BackgroundImageFix"/>
<feColorMatrix in="SourceAlpha" type="matrix" values="0 0 0 0 0 0 0 0 0 0 0 0 0 0 0 0 0 0 127 0"/>
<feOffset dy="4"/>
<feGaussianBlur stdDeviation="2"/>
<feColorMatrix type="matrix" values="0 0 0 0 0 0 0 0 0 0 0 0 0 0 0 0 0 0 0.25 0"/>
<feBlend mode="normal" in2="BackgroundImageFix" result="effect1_dropShadow"/>
<feBlend mode="normal" in="SourceGraphic" in2="effect1_dropShadow" result="shape"/>
</filter>
<filter id="filter4_d" x="63.4536" y="139.227" width="18.436" height="18.436" filterUnits="userSpaceOnUse" color-interpolation-filters="sRGB">
<feFlood flood-opacity="0" result="BackgroundImageFix"/>
<feColorMatrix in="SourceAlpha" type="matrix" values="0 0 0 0 0 0 0 0 0 0 0 0 0 0 0 0 0 0 127 0"/>
<feOffset dy="4"/>
<feGaussianBlur stdDeviation="2"/>
<feColorMatrix type="matrix" values="0 0 0 0 0 0 0 0 0 0 0 0 0 0 0 0 0 0 0.25 0"/>
<feBlend mode="normal" in2="BackgroundImageFix" result="effect1_dropShadow"/>
<feBlend mode="normal" in="SourceGraphic" in2="effect1_dropShadow" result="shape"/>
</filter>
<filter id="filter5_d" x="72.284" y="243.587" width="18.436" height="18.436" filterUnits="userSpaceOnUse" color-interpolation-filters="sRGB">
<feFlood flood-opacity="0" result="BackgroundImageFix"/>
<feColorMatrix in="SourceAlpha" type="matrix" values="0 0 0 0 0 0 0 0 0 0 0 0 0 0 0 0 0 0 127 0"/>
<feOffset dy="4"/>
<feGaussianBlur stdDeviation="2"/>
<feColorMatrix type="matrix" values="0 0 0 0 0 0 0 0 0 0 0 0 0 0 0 0 0 0 0.25 0"/>
<feBlend mode="normal" in2="BackgroundImageFix" result="effect1_dropShadow"/>
<feBlend mode="normal" in="SourceGraphic" in2="effect1_dropShadow" result="shape"/>
</filter>
<filter id="filter6_d" x="265.751" y="201.04" width="18.436" height="18.436" filterUnits="userSpaceOnUse" color-interpolation-filters="sRGB">
<feFlood flood-opacity="0" result="BackgroundImageFix"/>
<feColorMatrix in="SourceAlpha" type="matrix" values="0 0 0 0 0 0 0 0 0 0 0 0 0 0 0 0 0 0 127 0"/>
<feOffset dy="4"/>
<feGaussianBlur stdDeviation="2"/>
<feColorMatrix type="matrix" values="0 0 0 0 0 0 0 0 0 0 0 0 0 0 0 0 0 0 0.25 0"/>
<feBlend mode="normal" in2="BackgroundImageFix" result="effect1_dropShadow"/>
<feBlend mode="normal" in="SourceGraphic" in2="effect1_dropShadow" result="shape"/>
</filter>
<filter id="filter7_d" x="126.872" y="284.635" width="18.436" height="18.436" filterUnits="userSpaceOnUse" color-interpolation-filters="sRGB">
<feFlood flood-opacity="0" result="BackgroundImageFix"/>
<feColorMatrix in="SourceAlpha" type="matrix" values="0 0 0 0 0 0 0 0 0 0 0 0 0 0 0 0 0 0 127 0"/>
<feOffset dy="4"/>
<feGaussianBlur stdDeviation="2"/>
<feColorMatrix type="matrix" values="0 0 0 0 0 0 0 0 0 0 0 0 0 0 0 0 0 0 0.25 0"/>
<feBlend mode="normal" in2="BackgroundImageFix" result="effect1_dropShadow"/>
<feBlend mode="normal" in="SourceGraphic" in2="effect1_dropShadow" result="shape"/>
</filter>
<filter id="filter8_d" x="185.474" y="47.7116" width="18.436" height="18.436" filterUnits="userSpaceOnUse" color-interpolation-filters="sRGB">
<feFlood flood-opacity="0" result="BackgroundImageFix"/>
<feColorMatrix in="SourceAlpha" type="matrix" values="0 0 0 0 0 0 0 0 0 0 0 0 0 0 0 0 0 0 127 0"/>
<feOffset dy="4"/>
<feGaussianBlur stdDeviation="2"/>
<feColorMatrix type="matrix" values="0 0 0 0 0 0 0 0 0 0 0 0 0 0 0 0 0 0 0.25 0"/>
<feBlend mode="normal" in2="BackgroundImageFix" result="effect1_dropShadow"/>
<feBlend mode="normal" in="SourceGraphic" in2="effect1_dropShadow" result="shape"/>
</filter>
<filter id="filter9_d" x="227.218" y="80.7321" width="18.436" height="18.436" filterUnits="userSpaceOnUse" color-interpolation-filters="sRGB">
<feFlood flood-opacity="0" result="BackgroundImageFix"/>
<feColorMatrix in="SourceAlpha" type="matrix" values="0 0 0 0 0 0 0 0 0 0 0 0 0 0 0 0 0 0 127 0"/>
<feOffset dy="4"/>
<feGaussianBlur stdDeviation="2"/>
<feColorMatrix type="matrix" values="0 0 0 0 0 0 0 0 0 0 0 0 0 0 0 0 0 0 0.25 0"/>
<feBlend mode="normal" in2="BackgroundImageFix" result="effect1_dropShadow"/>
<feBlend mode="normal" in="SourceGraphic" in2="effect1_dropShadow" result="shape"/>
</filter>
<linearGradient id="paint0_linear" x1="217.571" y1="229.244" x2="114.817" y2="92.7735" gradientUnits="userSpaceOnUse">
<stop offset="0.160774" stop-color="#024E95"/>
<stop offset="0.72807" stop-color="white"/>
</linearGradient>
<linearGradient id="paint1_linear" x1="163.862" y1="319.103" x2="166.654" y2="16.4376" gradientUnits="userSpaceOnUse">
<stop stop-color="#D6E5FD"/>
<stop offset="0.473958" stop-color="#024E95"/>
<stop offset="1" stop-color="#D6E5FD"/>
</linearGradient>
<linearGradient id="paint2_linear" x1="231.525" y1="261.285" x2="95.7599" y2="78.8079" gradientUnits="userSpaceOnUse">
<stop stop-color="#D6E5FD"/>
<stop offset="0.473958" stop-color="#024E95"/>
<stop offset="1" stop-color="#D6E5FD"/>
</linearGradient>
<linearGradient id="paint3_linear" x1="120.779" y1="243.228" x2="225.532" y2="90.9802" gradientUnits="userSpaceOnUse">
<stop stop-color="#D6E5FD"/>
<stop offset="0.473958" stop-color="#024E95"/>
<stop offset="1" stop-color="#D6E5FD"/>
</linearGradient>
</defs>
</svg>
