<svg width="335" height="335" viewBox="0 0 335 335" fill="none" xmlns="http://www.w3.org/2000/svg">
<mask id="mask0" mask-type="alpha" maskUnits="userSpaceOnUse" x="0" y="0" width="335" height="335">
<rect y="6.10352e-05" width="335" height="335" fill="#FAEE30"/>
</mask>
<g mask="url(#mask0)">
<path d="M315.362 219.818C315.557 219.622 315.557 219.306 315.362 219.11L312.18 215.928C311.985 215.733 311.668 215.733 311.473 215.928C311.277 216.124 311.277 216.44 311.473 216.636L314.301 219.464L311.473 222.292C311.277 222.488 311.277 222.804 311.473 223C311.668 223.195 311.985 223.195 312.18 223L315.362 219.818ZM19.992 219.964H315.008V218.964H19.992V219.964Z" fill="black"/>
<path d="M168.364 31.6465C168.169 31.4512 167.852 31.4512 167.657 31.6465L164.475 34.8284C164.28 35.0236 164.28 35.3402 164.475 35.5355C164.67 35.7307 164.987 35.7308 165.182 35.5355L168.011 32.7072L170.839 35.5357C171.034 35.731 171.351 35.731 171.546 35.5357C171.741 35.3405 171.741 35.0239 171.546 34.8286L168.364 31.6465ZM168.5 332L168.511 32.0001L167.511 32L167.5 332L168.5 332Z" fill="black"/>
<path d="M23 73.0001L167.669 219L316 73.0001" stroke="#E14E0E" stroke-width="3"/>
<path d="M309.906 232.969L311.629 230.66H312.93L310.387 233.848L311.934 237H310.779L309.73 234.633L307.943 237H306.648L309.268 233.742L307.768 230.66H308.928L309.906 232.969Z" fill="black"/>
<path d="M181.455 47.4005L183.711 42.6602H184.883L181.121 50.0547C180.598 51.0821 179.926 51.5899 179.105 51.5782C178.961 51.5743 178.748 51.5391 178.467 51.4727L178.561 50.5938L178.836 50.6231C179.172 50.6387 179.461 50.5626 179.703 50.3946C179.949 50.2305 180.166 49.963 180.354 49.5919L180.734 48.8653L179.639 42.6602H180.746L181.455 47.4005Z" fill="black"/>
<path d="M189.16 270.006L191.113 263.434H194.141L189.893 275.641L189.658 276.197C189.027 277.577 187.985 278.268 186.533 278.268C186.123 278.268 185.706 278.206 185.283 278.082V275.943L185.713 275.953C186.247 275.953 186.644 275.872 186.904 275.709C187.171 275.546 187.38 275.276 187.529 274.898L187.861 274.029L184.16 263.434H187.197L189.16 270.006ZM209.209 266.715H200.479V264.41H209.209V266.715ZM209.209 270.943H200.479V268.639H209.209V270.943ZM218.975 276.637H217.266V259.781H218.975V276.637ZM225.742 266.588L227.52 263.434H230.537L227.529 268.609L230.664 274H227.637L225.752 270.68L223.877 274H220.84L223.975 268.609L220.977 263.434H224.004L225.742 266.588ZM234.209 276.637H232.5V259.781H234.209V276.637Z" fill="black"/>
</g>
</svg>
