<svg width="385" height="201" viewBox="0 0 385 201" fill="none" xmlns="http://www.w3.org/2000/svg">
<path d="M185.746 94.0894C180.992 92.6319 166.5 71.4883 146 74.0001C125.5 76.512 116 96 105.5 126C95 156 60.5726 167.066 36.0282 174.88C36.0282 174.88 92.595 179.243 110.605 152.282C128.614 125.32 134.016 116.473 136.593 132.508C139.17 148.543 139.702 149.428 126.989 169.231H160.322L172.751 150.022C187.487 157.361 200.069 157.781 229.814 152.282C230.797 159.245 228.222 162.922 220.209 169.231H255.237C249.063 154.5 251.282 135.898 255.237 143.807C259.192 151.717 272.186 174.881 297.045 165.841C263.712 166.971 264.277 120.643 251.847 109.343C244.176 102.368 235.24 102.456 223 102C210.76 101.544 190.5 95.547 185.746 94.0894Z" fill="#C4C4C4"/>
<mask id="mask0" mask-type="alpha" maskUnits="userSpaceOnUse" x="82" y="120" width="57" height="49">
<path d="M96.4803 120.773C105.512 136.424 93.8755 150.523 83.4859 167.666H127.554C138.911 146.374 140.551 136.258 132.638 122.468L96.4803 120.773Z" fill="#C4C4C4" stroke="black"/>
</mask>
<g mask="url(#mask0)">
<path d="M137.158 126.423C127.407 135.838 119.237 138.722 101.565 141.112C118.131 144.301 129.814 142.807 145.633 133.203L137.158 126.423Z" fill="#D6D6D6"/>
</g>
<path d="M134.898 97.0446C142.808 103.824 134.898 115.124 139.418 124.163C143.938 133.203 169.927 123.033 169.927 115.689C169.927 108.344 162.017 100.999 158.627 92.5248L134.898 97.0446Z" fill="#515151"/>
<path d="M134.898 96.4797C140.364 96.3519 143.373 97.6098 145.068 104.954C146.763 112.299 140.548 116.819 143.938 120.209C147.328 123.598 164.842 117.949 167.102 112.864C169.362 107.779 157.424 95.7983 158.627 92.5248L134.898 96.4797Z" fill="#C4C4C4"/>
<path d="M133.053 99.8694C133.053 103.867 130.316 107.064 126.989 107.064C123.662 107.064 120.924 103.867 120.924 99.8694C120.924 95.8715 123.662 92.6748 126.989 92.6748C130.316 92.6748 133.053 95.8715 133.053 99.8694Z" stroke="black" stroke-width="0.3"/>
<ellipse cx="127.554" cy="97.6095" rx="4.51977" ry="5.08475" fill="black"/>
<circle r="1.12994" transform="matrix(-1 0 0 1 128.684 95.9146)" fill="white"/>
<path d="M1.56497 173.316C83.4859 173.316 79.5311 146.762 110.04 98.1745C140.548 49.5867 206.085 49.0218 246.198 98.1745C286.311 147.327 287.441 173.316 354.672 173.316" stroke="black" stroke-width="3"/>
<path d="M384.404 178.707C384.599 178.512 384.6 178.196 384.406 178L381.233 174.809C381.038 174.613 380.721 174.612 380.525 174.807C380.33 175.002 380.329 175.318 380.523 175.514L383.344 178.35L380.507 181.171C380.312 181.366 380.311 181.682 380.505 181.878C380.7 182.074 381.017 182.075 381.213 181.88L384.404 178.707ZM0.998588 177.77L384.05 178.852L384.052 177.852L1.00141 176.77L0.998588 177.77Z" fill="black"/>
<path d="M12.653 0.646576C12.4577 0.451309 12.1411 0.451309 11.9459 0.646576L8.7639 3.82855C8.56864 4.02382 8.56864 4.34039 8.7639 4.53566C8.95916 4.73091 9.27575 4.73091 9.47101 4.53566L12.2994 1.70723L15.1279 4.53566C15.3231 4.73091 15.6397 4.73091 15.835 4.53566C16.0302 4.34039 16.0302 4.02382 15.835 3.82855L12.653 0.646576ZM12.7994 201L12.7994 1.00012H11.7994L11.7994 201H12.7994Z" fill="black"/>
</svg>
