<svg width="335" height="335" viewBox="0 0 335 335" fill="none" xmlns="http://www.w3.org/2000/svg">
<g filter="url(#filter0_d)">
<circle cx="167.5" cy="169.5" r="131.5" fill="url(#paint0_radial)"/>
</g>
<mask id="mask0" mask-type="alpha" maskUnits="userSpaceOnUse" x="36" y="38" width="263" height="263">
<circle cx="167.5" cy="169.5" r="131.5" fill="#C4C4C4"/>
</mask>
<g mask="url(#mask0)">
<circle cx="167.5" cy="-5.83343" r="46.7313" stroke="black" stroke-opacity="0.5"/>
<circle cx="167.5" cy="-2.43549" r="48.4302" stroke="black" stroke-opacity="0.5"/>
<circle cx="167.5" cy="0.962696" r="50.1292" stroke="black" stroke-opacity="0.5"/>
<circle cx="167.5" cy="4.36039" r="51.8282" stroke="black" stroke-opacity="0.5"/>
<circle cx="167.5" cy="7.75833" r="53.5271" stroke="black" stroke-opacity="0.5"/>
<circle cx="167.5" cy="11.1563" r="55.2261" stroke="black" stroke-opacity="0.5"/>
<circle cx="167.5" cy="14.5545" r="56.9251" stroke="black" stroke-opacity="0.5"/>
<circle cx="167.5" cy="17.9522" r="58.624" stroke="black" stroke-opacity="0.5"/>
<circle cx="167.5" cy="21.3501" r="60.323" stroke="black" stroke-opacity="0.5"/>
<circle cx="167.5" cy="24.748" r="62.022" stroke="black" stroke-opacity="0.5"/>
<circle cx="167.5" cy="28.146" r="63.7209" stroke="black" stroke-opacity="0.5"/>
<circle cx="167.5" cy="31.5439" r="65.4199" stroke="black" stroke-opacity="0.5"/>
<circle cx="167.5" cy="34.9419" r="67.1189" stroke="black" stroke-opacity="0.5"/>
<circle cx="167.5" cy="38.3398" r="68.8178" stroke="black" stroke-opacity="0.5"/>
<circle cx="167.5" cy="41.7377" r="70.5168" stroke="black" stroke-opacity="0.5"/>
<circle cx="167.5" cy="45.1357" r="72.2158" stroke="black" stroke-opacity="0.5"/>
<circle cx="167.5" cy="48.5336" r="73.9147" stroke="black" stroke-opacity="0.5"/>
<circle cx="167.5" cy="51.9316" r="75.6137" stroke="black" stroke-opacity="0.5"/>
<circle cx="167.5" cy="55.3295" r="77.3127" stroke="black" stroke-opacity="0.5"/>
<circle cx="167.5" cy="58.7274" r="79.0116" stroke="black" stroke-opacity="0.5"/>
<circle cx="167.5" cy="62.1254" r="80.7106" stroke="black" stroke-opacity="0.5"/>
<circle cx="167.5" cy="65.5231" r="82.4096" stroke="black" stroke-opacity="0.5"/>
<circle cx="167.5" cy="68.9213" r="84.1085" stroke="black" stroke-opacity="0.5"/>
<circle cx="167.5" cy="72.3192" r="85.8075" stroke="black" stroke-opacity="0.5"/>
<circle cx="167.5" cy="75.7171" r="87.5065" stroke="black" stroke-opacity="0.5"/>
<circle cx="167.5" cy="79.1148" r="89.2054" stroke="black" stroke-opacity="0.5"/>
<circle cx="167.5" cy="82.5128" r="90.9044" stroke="black" stroke-opacity="0.5"/>
<circle cx="167.5" cy="85.911" r="92.6034" stroke="black" stroke-opacity="0.5"/>
<circle cx="167.5" cy="89.3087" r="94.3023" stroke="black" stroke-opacity="0.5"/>
<circle cx="167.5" cy="92.7066" r="96.0013" stroke="black" stroke-opacity="0.5"/>
<circle cx="167.5" cy="96.1046" r="97.7003" stroke="black" stroke-opacity="0.5"/>
<circle cx="167.5" cy="99.5027" r="99.3992" stroke="black" stroke-opacity="0.5"/>
<circle cx="167.5" cy="102.9" r="101.098" stroke="black" stroke-opacity="0.5"/>
<circle cx="167.5" cy="106.298" r="102.797" stroke="black" stroke-opacity="0.5"/>
<circle cx="167.5" cy="109.696" r="104.496" stroke="black" stroke-opacity="0.5"/>
<circle cx="167.5" cy="113.095" r="106.195" stroke="black" stroke-opacity="0.5"/>
<circle cx="167.5" cy="116.492" r="107.894" stroke="black" stroke-opacity="0.5"/>
<circle cx="167.5" cy="119.89" r="109.593" stroke="black" stroke-opacity="0.5"/>
<circle cx="167.5" cy="123.288" r="111.292" stroke="black" stroke-opacity="0.5"/>
<circle cx="167.5" cy="126.686" r="112.991" stroke="black" stroke-opacity="0.5"/>
<circle cx="167.5" cy="130.084" r="114.69" stroke="black" stroke-opacity="0.5"/>
<circle cx="167.5" cy="133.482" r="116.389" stroke="black" stroke-opacity="0.5"/>
<circle cx="167.5" cy="136.88" r="118.088" stroke="black" stroke-opacity="0.5"/>
<circle cx="167.5" cy="140.278" r="119.787" stroke="black" stroke-opacity="0.5"/>
<circle cx="167.5" cy="143.676" r="121.486" stroke="black" stroke-opacity="0.5"/>
<circle cx="167.5" cy="147.074" r="123.185" stroke="black" stroke-opacity="0.5"/>
<circle cx="167.5" cy="150.471" r="124.884" stroke="black" stroke-opacity="0.5"/>
<circle cx="167.5" cy="153.87" r="126.583" stroke="black" stroke-opacity="0.5"/>
<circle cx="167.5" cy="157.267" r="128.282" stroke="black" stroke-opacity="0.5"/>
<circle cx="167.5" cy="160.665" r="129.981" stroke="black" stroke-opacity="0.5"/>
<circle cx="167.5" cy="164.063" r="131.68" stroke="black" stroke-opacity="0.5"/>
<path d="M200.64 170.859C200.64 236.376 185.48 295.666 160.996 338.56C136.503 381.468 102.744 407.875 65.562 407.875C28.3804 407.875 -5.37914 381.468 -29.8715 338.56C-54.3558 295.666 -69.5155 236.376 -69.5155 170.859C-69.5155 105.342 -54.3558 46.0515 -29.8715 3.15805C-5.37914 -39.7497 28.3804 -66.1565 65.562 -66.1565C102.744 -66.1565 136.503 -39.7497 160.996 3.15805C185.48 46.0515 200.64 105.342 200.64 170.859Z" stroke="black" stroke-opacity="0.5"/>
<path d="M221.027 170.859C221.027 230.739 205.871 284.926 181.393 324.127C156.911 363.335 123.153 387.487 85.9496 387.487C48.7457 387.487 14.9881 363.335 -9.49408 324.127C-33.9718 284.926 -49.1279 230.739 -49.1279 170.859C-49.1279 110.98 -33.9718 56.7925 -9.49408 17.5913C14.9881 -21.617 48.7457 -45.7688 85.9496 -45.7688C123.153 -45.7688 156.911 -21.617 181.393 17.5913C205.871 56.7925 221.027 110.98 221.027 170.859Z" stroke="black" stroke-opacity="0.5"/>
<path d="M241.415 170.859C241.415 225.099 226.264 274.182 201.793 309.692C177.322 345.203 143.564 367.1 106.337 367.1C69.11 367.1 35.3529 345.203 10.8811 309.692C-13.5891 274.182 -28.7403 225.099 -28.7403 170.859C-28.7403 116.619 -13.5891 67.536 10.8811 32.0265C35.3529 -3.48507 69.11 -25.3811 106.337 -25.3811C143.564 -25.3811 177.322 -3.48507 201.793 32.0265C226.264 67.536 241.415 116.619 241.415 170.859Z" stroke="black" stroke-opacity="0.5"/>
<path d="M261.802 170.859C261.802 219.457 246.658 263.436 222.196 295.255C197.735 327.073 163.976 346.712 126.725 346.712C89.4735 346.712 55.7149 327.073 31.2534 295.255C6.79149 263.436 -8.35272 219.457 -8.35272 170.859C-8.35272 122.261 6.79149 78.2825 31.2534 46.4636C55.7149 14.6453 89.4735 -4.99365 126.725 -4.99365C163.976 -4.99365 197.735 14.6453 222.196 46.4636C246.658 78.2825 261.802 122.261 261.802 170.859Z" stroke="black" stroke-opacity="0.5"/>
<path d="M282.19 170.859C282.19 256.788 221.65 326.324 147.112 326.324C72.5746 326.324 12.0349 256.788 12.0349 170.859C12.0349 84.9301 72.5746 15.394 147.112 15.394C221.65 15.394 282.19 84.9301 282.19 170.859Z" stroke="black" stroke-opacity="0.5"/>
<circle cx="167.5" cy="170.859" r="135.078" stroke="black" stroke-opacity="0.5"/>
<path d="M402.817 167.461C402.817 232.51 387.847 291.376 363.67 333.962C339.484 376.563 306.149 402.778 269.438 402.778C232.727 402.778 199.392 376.563 175.206 333.962C151.029 291.376 136.059 232.51 136.059 167.461C136.059 102.413 151.029 43.5469 175.206 0.960693C199.392 -41.6403 232.727 -67.8552 269.438 -67.8552C306.149 -67.8552 339.484 -41.6403 363.67 0.960693C387.847 43.5469 402.817 102.413 402.817 167.461Z" stroke="black" stroke-opacity="0.5"/>
<path d="M382.429 167.461C382.429 226.872 367.463 280.635 343.292 319.529C319.117 358.43 285.784 382.39 249.05 382.39C212.317 382.39 178.984 358.43 154.809 319.529C130.638 280.635 115.672 226.872 115.672 167.461C115.672 108.05 130.638 54.2877 154.809 15.3938C178.984 -23.5075 212.317 -47.4678 249.05 -47.4678C285.784 -47.4678 319.117 -23.5075 343.292 15.3938C367.463 54.2877 382.429 108.05 382.429 167.461Z" stroke="black" stroke-opacity="0.5"/>
<path d="M362.041 167.461C362.041 221.233 347.08 269.891 322.917 305.093C298.752 340.298 265.42 362.003 228.663 362.003C191.906 362.003 158.573 340.298 134.409 305.093C110.245 269.891 95.2842 221.233 95.2842 167.461C95.2842 113.69 110.245 65.0312 134.409 29.8292C158.573 -5.37519 191.906 -27.0801 228.663 -27.0801C265.42 -27.0801 298.752 -5.37519 322.917 29.8292C347.08 65.0312 362.041 113.69 362.041 167.461Z" stroke="black" stroke-opacity="0.5"/>
<path d="M341.654 167.461C341.654 215.59 326.699 259.145 302.545 290.656C278.39 322.167 245.057 341.615 208.275 341.615C171.494 341.615 138.16 322.167 114.006 290.656C89.8509 259.145 74.8966 215.59 74.8966 167.461C74.8966 119.332 89.8509 75.7781 114.006 44.2667C138.16 12.7557 171.494 -6.69238 208.275 -6.69238C245.057 -6.69238 278.39 12.7557 302.545 44.2667C326.699 75.7781 341.654 119.332 341.654 167.461Z" stroke="black" stroke-opacity="0.5"/>
<path d="M321.266 167.461C321.266 252.453 261.486 321.227 187.888 321.227C114.289 321.227 54.509 252.453 54.509 167.461C54.509 82.4696 114.289 13.6951 187.888 13.6951C261.486 13.6951 321.266 82.4696 321.266 167.461Z" stroke="black" stroke-opacity="0.5"/>
<circle cx="167.5" cy="167.461" r="133.379" stroke="black" stroke-opacity="0.5"/>
<path d="M167.84 15.5735V321.048" stroke="black" stroke-opacity="0.5"/>
</g>
<defs>
<filter id="filter0_d" x="36" y="38" width="271" height="271" filterUnits="userSpaceOnUse" color-interpolation-filters="sRGB">
<feFlood flood-opacity="0" result="BackgroundImageFix"/>
<feColorMatrix in="SourceAlpha" type="matrix" values="0 0 0 0 0 0 0 0 0 0 0 0 0 0 0 0 0 0 127 0"/>
<feOffset dx="4" dy="4"/>
<feGaussianBlur stdDeviation="2"/>
<feColorMatrix type="matrix" values="0 0 0 0 0 0 0 0 0 0 0 0 0 0 0 0 0 0 0.25 0"/>
<feBlend mode="normal" in2="BackgroundImageFix" result="effect1_dropShadow"/>
<feBlend mode="normal" in="SourceGraphic" in2="effect1_dropShadow" result="shape"/>
</filter>
<radialGradient id="paint0_radial" cx="0" cy="0" r="1" gradientUnits="userSpaceOnUse" gradientTransform="translate(168 61) rotate(90.1194) scale(240.001 224.677)">
<stop stop-color="#2400FF"/>
<stop offset="0.0001" stop-color="#FFEA2F"/>
<stop offset="0.600483" stop-color="#FF5146"/>
<stop offset="1" stop-color="#7761FF"/>
</radialGradient>
</defs>
</svg>
