<svg width="221" height="377" viewBox="0 0 221 377" fill="none" xmlns="http://www.w3.org/2000/svg">
<path d="M55.5059 119.155C70.1897 132.768 89.5309 130.744 95.0599 127.624C100.589 124.504 102.571 103.929 87.4043 79.4858L51.678 85.726L45.2984 114.252L55.5059 119.155Z" fill="#DCAB73"/>
<mask id="mask0" mask-type="alpha" maskUnits="userSpaceOnUse" x="45" y="79" width="55" height="51">
<path d="M55.6679 119.155C70.5848 132.768 90.233 130.744 95.8498 127.624C101.467 124.504 103.48 103.929 88.0727 79.4858L51.7793 85.726L45.2984 114.252L55.6679 119.155Z" fill="#FFC786"/>
</mask>
<g mask="url(#mask0)">
<path d="M60.634 117.446C75.3178 131.059 94.659 129.035 100.188 125.915C105.717 122.795 107.699 102.219 92.5324 77.7764L56.8062 84.0165L50.4265 112.543L60.634 117.446Z" fill="#FFC786"/>
</g>
<path d="M46.153 71.3661C47.0984 65.5698 45.4352 63.4126 38.4608 61.1099C44.9475 58.919 48.6016 57.5504 53.8452 65.3833C57.0093 63.6385 56.9727 61.8107 55.9819 58.1187C59.3949 59.0661 61.2149 59.7592 61.9647 65.3833C63.2019 65.1743 63.8224 64.7915 64.1014 61.1099L67.5201 68.3749C67.1822 62.0814 67.8663 60.81 70.0842 61.1099C69.4585 64.85 69.1226 66.9415 74.785 68.3749C74.8321 61.7453 76.4295 60.0452 82.4772 61.1099C73.0756 67.8582 79.9131 71.3661 87.6053 65.3833C84.0067 69.216 83.7823 70.9547 87.6053 73.0757L92.3061 68.3749C86.6109 76.1941 87.2127 78.8792 96.5795 79.9131C92.2092 80.1202 90.0607 80.6326 88.8873 85.0413C84.7344 79.2234 84.5663 80.8052 85.4686 86.3233C79.8865 81.2851 77.299 79.8022 78.6311 91.8787C71.3662 79.9131 61.9647 86.3233 72.6483 95.7248C68.8392 97.7115 66.5393 95.965 61.9647 90.5967C59.2069 94.1002 58.1073 96.1471 61.9647 100.853L58.5459 98.7162C62.6915 103.67 62.7211 105.876 57.6913 108.545C55.9819 93.5881 44.871 107.69 60.6827 111.964L57.6913 114.101C61.4925 117.38 62.0794 119.126 60.6827 122.22L55.9819 119.229V126.066C53.4973 120.232 51.7162 118.836 48.2897 117.519C46.4133 120.058 46.4128 121.467 49.9991 123.929C46.9985 123.71 45.3304 123.489 43.1616 117.519C43.0568 120.286 42.3115 121.47 38.4608 122.22C41.0162 115.199 40.8804 112.347 36.3241 110.254C32.2414 111.47 31.151 113.723 30.3413 119.229C26.6508 115.655 25.4699 113.152 28.2046 105.981C24.7975 105.269 23.1712 104.227 20.9398 100.853C32.4781 98.7162 34.6148 90.5967 19.6578 91.8787C20.8644 86.6318 23.0159 84.6897 32.4781 85.0413C27.0816 83.529 26.0979 81.9484 26.9226 78.2038C35.0421 83.3319 38.4608 78.2038 36.3241 68.3749C38.884 71.3564 40.5886 72.6447 46.153 71.3661Z" fill="#FFAE19"/>
<mask id="mask1" mask-type="alpha" maskUnits="userSpaceOnUse" x="19" y="58" width="78" height="69">
<path d="M46.153 71.3661C47.0984 65.5698 45.4352 63.4126 38.4608 61.1099C44.9475 58.919 48.6016 57.5504 53.8452 65.3833C57.0093 63.6385 56.9727 61.8107 55.9819 58.1187C59.3949 59.0661 61.2149 59.7592 61.9647 65.3833C63.2019 65.1743 63.8224 64.7915 64.1014 61.1099L67.5201 68.3749C67.1822 62.0814 67.8663 60.81 70.0842 61.1099C69.4585 64.85 69.1226 66.9415 74.785 68.3749C74.8321 61.7453 76.4295 60.0452 82.4772 61.1099C73.0756 67.8582 79.9131 71.3661 87.6053 65.3833C84.0067 69.216 83.7823 70.9547 87.6053 73.0757L92.3061 68.3749C86.6109 76.1941 87.2127 78.8792 96.5795 79.9131C92.2092 80.1202 90.0607 80.6326 88.8873 85.0413C84.7344 79.2234 84.5663 80.8052 85.4686 86.3233C79.8865 81.2851 77.299 79.8022 78.6311 91.8787C71.3662 79.9131 61.9647 86.3233 72.6483 95.7248C68.8392 97.7115 66.5393 95.965 61.9647 90.5967C59.2069 94.1002 58.1073 96.1471 61.9647 100.853L58.5459 98.7162C62.6915 103.67 62.7211 105.876 57.6913 108.545C55.9819 93.5881 44.871 107.69 60.6827 111.964L57.6913 114.101C61.4925 117.38 62.0794 119.126 60.6827 122.22L55.9819 119.229V126.066C53.4973 120.232 51.7162 118.836 48.2897 117.519C46.4133 120.058 46.4128 121.467 49.9991 123.929C46.9985 123.71 45.3304 123.489 43.1616 117.519C43.0568 120.286 42.3115 121.47 38.4608 122.22C41.0162 115.199 40.8804 112.347 36.3241 110.254C32.2414 111.47 31.151 113.723 30.3413 119.229C26.6508 115.655 25.4699 113.152 28.2046 105.981C24.7975 105.269 23.1712 104.227 20.9398 100.853C32.4781 98.7162 34.6148 90.5967 19.6578 91.8787C20.8644 86.6318 23.0159 84.6897 32.4781 85.0413C27.0816 83.529 26.0979 81.9484 26.9226 78.2038C35.0421 83.3319 38.4608 78.2038 36.3241 68.3749C38.884 71.3564 40.5886 72.6447 46.153 71.3661Z" fill="#FFAE19"/>
</mask>
<g mask="url(#mask1)">
<path d="M43.5889 71.3661C44.5344 65.5698 42.8711 63.4126 35.8968 61.1099C42.3834 58.919 46.0376 57.5504 51.2811 65.3833C54.4453 63.6385 54.4087 61.8107 53.4178 58.1187C56.8308 59.0661 58.6508 59.7592 59.4006 65.3833C60.6378 65.1743 61.2583 64.7915 61.5373 61.1099L64.9561 68.3749C64.6182 62.0814 65.3023 60.81 67.5201 61.1099C66.8944 64.85 66.5586 66.9415 72.2209 68.3749C72.2681 61.7453 73.8654 60.0452 79.9131 61.1099C70.5116 67.8582 77.3491 71.3661 85.0412 65.3833C81.4426 69.216 81.2183 70.9547 85.0412 73.0757L89.742 68.3749C84.0468 76.1941 84.6486 78.8792 94.0154 79.9131C89.6452 80.1202 87.4966 80.6326 86.3232 85.0413C82.1704 79.2234 82.0022 80.8052 82.9045 86.3233C77.3225 81.2851 74.7349 79.8022 76.067 91.8787C68.8022 79.9131 59.4006 86.3233 70.0842 95.7248C66.2751 97.7115 63.9753 95.965 59.4006 90.5967C56.6428 94.1002 55.5432 96.1471 59.4006 100.853L55.9819 98.7162C60.1274 103.67 60.157 105.876 55.1272 108.545C53.4178 93.5881 42.3069 107.69 58.1186 111.964L55.1272 114.101C58.9285 117.38 59.5153 119.126 58.1186 122.22L53.4178 119.229V126.066C50.9333 120.232 49.1522 118.836 45.7257 117.519C43.8492 120.058 43.8487 121.467 47.435 123.929C44.4344 123.71 42.7663 123.489 40.5975 117.519C40.4927 120.286 39.7474 121.47 35.8968 122.22C38.4522 115.199 38.3164 112.347 33.7601 110.254C29.6774 111.47 28.587 113.723 27.7773 119.229C24.0867 115.655 22.9058 113.152 25.6405 105.981C22.2335 105.269 20.6072 104.227 18.3757 100.853C29.914 98.7162 32.0507 90.5967 17.0937 91.8787C18.3003 86.6318 20.4519 84.6897 29.914 85.0413C24.5176 83.529 23.5339 81.9484 24.3585 78.2038C32.4781 83.3319 35.8968 78.2038 33.7601 68.3749C36.32 71.3564 38.0246 72.6447 43.5889 71.3661Z" fill="#E1960A"/>
</g>
<path d="M83.1389 100.679C85.9012 108.784 87.8106 111.502 92.0719 112.138" stroke="#DCAB73" stroke-width="2"/>
<circle cx="75.2124" cy="111.109" r="2.56406" fill="black" fill-opacity="0.45"/>
<path d="M96.5795 117.092L90.1694 118.801L92.7334 119.656V123.075L96.5795 117.092Z" fill="#DCAB73"/>
<path d="M91.4514 98.7157L185.039 13.2471C191.698 23.6896 194.317 33.1798 203.843 38.4603L101.28 106.835C93.2345 107.991 91.0222 106.175 91.4514 98.7157Z" fill="url(#paint0_linear)"/>
<path d="M173.929 15.8117C174.783 28.2047 182.307 41.8559 196.578 49.1445C198.819 49.0794 208.784 43.5388 216.663 37.6062C201.706 22.6492 199.996 17.5211 194.868 0.427368L173.929 15.8117Z" fill="url(#paint1_linear)"/>
<path d="M192.023 1.0517C191.125 6.97123 207.342 37.8577 215.011 38.5409C223.55 39.3016 203.193 0.987293 193.027 0.0815881L192.023 1.0517Z" fill="black"/>
<path d="M0.427338 362.388C49.7222 343.792 81.7428 333.583 159.826 339.311C160.291 303.481 139.751 273.96 105.126 222.219H67.0928C36.9809 273.559 18.1002 300.677 0.427338 362.388Z" fill="#253419"/>
<path d="M74.3577 216.664L111.109 218.374L120.083 257.689C111.671 278.022 102.47 279.73 88.8873 285.039L74.3577 216.664Z" fill="#7A400B"/>
<path d="M53.8452 287.176C59.4006 327.773 53.8451 347.431 52.9904 350.85C52.1357 354.269 53.4178 355.551 61.11 360.251C68.8021 364.952 69.2292 371.79 79.4856 375.208C89.7419 378.627 98.7161 375.208 86.3232 360.251C73.9302 345.294 77.7763 351.277 77.7763 330.337C77.7763 309.398 83.5864 299.28 79.4856 288.03C79.4856 288.03 48.2898 246.578 53.8452 287.176Z" fill="#522D0B"/>
<path d="M87.1781 276.92C88.9837 287.389 87.178 337.175 86.3233 340.594C85.4686 344.012 86.7506 345.294 94.4428 349.995C102.135 354.696 102.562 361.533 112.818 364.952C123.075 368.371 132.049 364.952 119.656 349.995C107.263 335.038 111.109 341.021 111.109 320.081C111.109 299.141 116.919 289.024 112.818 277.774L87.1781 276.92Z" fill="#522D0B"/>
<path d="M116.665 270.509C112.441 277.902 100.642 283.322 85.8959 285.466C96.0053 296.81 117.859 285.615 116.665 270.509Z" fill="#683506"/>
<path d="M116.665 262.817C114.338 271.331 102.617 276.332 86.7506 277.774L87.6053 285.894C115.78 280.773 119.082 273.283 116.665 262.817Z" fill="#713A08"/>
<path d="M67.0928 136.751L52.9905 156.836L75.2124 199.998H112.391L107.263 136.751L84.6139 133.76L67.0928 136.751Z" fill="#8FAB77"/>
<mask id="mask2" mask-type="alpha" maskUnits="userSpaceOnUse" x="52" y="213" width="45" height="83">
<path d="M52.1358 284.184C57.6913 296.15 79.9131 298.714 85.0413 292.304C90.1694 285.894 92.35 279.752 90.5967 272.219C98.1843 264.248 90.5967 257.689 96.1522 247.006V215.382L70.9389 213.245L52.1358 284.184Z" fill="#7A400B"/>
</mask>
<g mask="url(#mask2)">
<path d="M52.1358 284.184C57.6913 296.15 79.9131 298.714 85.0413 292.304C90.1694 285.894 92.35 279.752 90.5967 272.219C98.1843 264.248 90.5967 257.689 96.1522 247.006V215.382L70.9389 213.245L52.1358 284.184Z" fill="#522D0B"/>
</g>
<path d="M50.4265 285.039C55.9819 297.005 78.2038 299.569 83.3319 293.159C88.46 286.749 90.6406 280.607 88.8873 273.074C96.4749 265.103 88.8873 258.544 94.4428 247.86V216.237L69.2296 214.1L50.4265 285.039Z" fill="#7A400B"/>
<mask id="mask3" mask-type="alpha" maskUnits="userSpaceOnUse" x="74" y="198" width="35" height="27">
<path d="M74.3577 200.853C89.717 197.764 97.1911 198.439 108.972 202.99L107.69 224.356C99.7376 221.117 92.1007 220.922 75.2124 222.22L74.3577 200.853Z" fill="#7A400B"/>
</mask>
<g mask="url(#mask3)">
<path d="M74.3577 200.853C89.717 197.764 97.1911 198.439 108.972 202.99L107.69 224.356C99.7376 221.117 92.1007 220.922 75.2124 222.22L74.3577 200.853Z" fill="#522D0B"/>
</g>
<path d="M74.3577 198.289C89.717 195.2 97.1911 195.875 108.972 200.426L107.69 221.792C99.7376 218.553 92.1007 218.358 75.2124 219.656L74.3577 198.289Z" fill="#7A400B"/>
<path d="M95.2975 134.614C104.699 139.742 90.1473 216.664 108.972 251.279C127.798 285.894 156.835 294.013 159.826 339.739C179.484 283.33 100.853 255.552 114.955 192.733V134.614H95.2975Z" fill="#385222"/>
<path d="M67.5202 131.623C61.5375 150.853 97.8616 189.314 87.178 237.177C76.4944 285.039 6.89959 328.833 0 365.38C0 279.056 42.7419 278.813 51.2812 191.878L46.5804 147.007L67.5202 131.623Z" fill="#2A3F18"/>
<mask id="mask4" mask-type="alpha" maskUnits="userSpaceOnUse" x="0" y="131" width="90" height="235">
<path d="M67.5202 131.623C61.5375 150.853 97.8616 189.314 87.178 237.177C76.4944 285.039 6.89959 328.833 0 365.38C0 279.056 42.7419 278.813 51.2812 191.878L46.5804 147.007L67.5202 131.623Z" fill="#385222"/>
</mask>
<g mask="url(#mask4)">
<path d="M76.0671 124.786C70.0843 144.016 106.408 182.477 95.7248 230.339C85.0412 278.202 15.4464 321.995 8.54685 358.542C8.54685 272.219 51.2888 271.976 59.828 185.041L37.6062 147.007L76.0671 124.786Z" fill="#385222"/>
</g>
<path d="M92.3061 233.331C92.3061 231.621 86.5392 223.801 79.4858 222.22L66.6655 242.305L71.7936 244.869C78.7313 250.941 82.6508 253.557 82.4772 249.57C81.4843 249.068 79.6946 247.345 78.2037 246.151L82.4772 249.57C84.4154 250.55 84.968 250.564 85.8959 248.466C87.1348 248.682 88.0326 247.006 87.6053 245.903C88.1176 245.955 88.9798 245.923 89.3147 245.637C90.8232 244.35 86.3567 242.092 85.1221 236.749C83.8874 231.407 82.5712 229.102 85.4686 230.767C88.3659 232.431 92.3061 235.04 92.3061 233.331Z" fill="#FFC786"/>
<path d="M89.3147 245.637C87.8061 246.925 84.2666 244.577 80.7678 240.509M89.3147 245.637C90.8232 244.35 86.3567 242.092 85.1221 236.749C83.8874 231.407 82.5712 229.102 85.4686 230.767C88.3659 232.431 92.3061 235.04 92.3061 233.331C92.3061 231.621 86.5392 223.801 79.4858 222.22L66.6655 242.305L71.7936 244.869C78.7313 250.941 82.6508 253.557 82.4772 249.57M89.3147 245.637C88.9798 245.923 88.1176 245.955 87.6053 245.903C88.0326 247.006 87.1348 248.682 85.8959 248.466M79.4858 243.16C81.8899 245.637 84.1865 247.006 85.8959 248.466M85.8959 248.466C84.968 250.564 84.4154 250.55 82.4772 249.57M82.4772 249.57C81.4843 249.068 79.6946 247.345 78.2037 246.151L82.4772 249.57Z" stroke="#DCAB73" stroke-width="0.3"/>
<mask id="mask5" mask-type="alpha" maskUnits="userSpaceOnUse" x="66" y="222" width="27" height="30">
<path d="M92.3061 233.098C92.3061 231.424 86.5392 223.768 79.4858 222.22L66.6655 241.884L71.7936 244.813C78.7313 250.758 82.0636 253.319 81.8899 249.415C80.897 248.924 79.6946 248.074 78.2037 246.905L81.8899 249.415C83.8281 250.375 84.968 249.97 85.8959 247.917C87.1348 248.128 87.986 246.708 88.46 245.147C88.9723 245.197 89.4072 245.093 89.742 244.813C91.2506 243.552 86.3567 241.676 85.1221 236.445C83.8874 231.214 82.5712 228.958 85.4686 230.588C88.3659 232.218 92.3061 234.772 92.3061 233.098Z" fill="#FFC786"/>
<path d="M89.742 244.813C88.2334 246.074 84.6939 243.775 81.1951 239.792M89.742 244.813C91.2506 243.552 86.3567 241.676 85.1221 236.445C83.8874 231.214 82.5712 228.958 85.4686 230.588C88.3659 232.218 92.3061 234.772 92.3061 233.098C92.3061 231.424 86.5392 223.768 79.4858 222.22L66.6655 241.884L71.7936 244.813C78.7313 250.758 82.0636 253.319 81.8899 249.415M89.742 244.813C89.4072 245.093 88.9723 245.197 88.46 245.147C87.986 246.708 87.1348 248.128 85.8959 247.917M78.6311 243.976C81.7923 246.017 84.2051 247.629 85.8959 247.917M85.8959 247.917C84.968 249.97 83.8281 250.375 81.8899 249.415M81.8899 249.415C80.897 248.924 79.6946 248.074 78.2037 246.905L81.8899 249.415Z" stroke="#DCAB73" stroke-width="0.3"/>
</mask>
<g mask="url(#mask5)">
<path d="M61.9648 210.254C64.529 213.246 61.9648 238.886 54.7 232.903C49.9992 241.023 61.5376 248.288 69.657 249.142C77.7764 249.997 86.7506 210.254 82.0499 212.818C77.3492 215.382 69.6571 207.263 67.5203 205.553C65.3835 203.844 59.4007 207.263 61.9648 210.254Z" fill="#DCAB73"/>
</g>
<path d="M48.717 146.153C32.2591 189.405 26.495 219.228 31.1959 225.211C35.8968 231.194 52.518 232.84 74.785 238.459L80.3403 219.656C67.6945 216.798 55.1272 214.1 52.1357 208.972C49.1441 203.844 59.828 171.793 59.828 171.793L48.717 146.153Z" fill="#385222"/>
<mask id="mask6" mask-type="alpha" maskUnits="userSpaceOnUse" x="26" y="146" width="52" height="93">
<path d="M45.5974 146.153C29.1396 189.405 23.3755 219.228 28.0764 225.211C32.7773 231.194 49.3985 232.84 71.6655 238.459L77.2208 219.656C64.575 216.798 52.0077 214.1 49.0162 208.972C46.0246 203.844 56.7085 171.793 56.7085 171.793L45.5974 146.153Z" fill="#385222"/>
</mask>
<g mask="url(#mask6)">
<path d="M48.7171 145.725C23.7854 183.707 1.28731 227.556 11.8373 237.177C22.3874 246.797 33.1594 244.805 55.4265 250.424L60.9817 231.621C48.3359 228.764 35.7687 226.066 32.7771 220.938C29.7856 215.81 37.6063 183.332 37.6063 183.332L48.7171 145.725Z" fill="#2A3F18"/>
</g>
<path d="M60.2555 209.399C62.8196 212.391 60.2555 238.031 52.9906 232.049C48.2898 240.168 59.8282 247.433 67.9476 248.288C76.067 249.142 85.0412 209.399 80.3405 211.964C75.6398 214.528 67.9478 206.408 65.8109 204.699C63.6741 202.989 57.6913 206.408 60.2555 209.399Z" fill="#2A3F18"/>
<mask id="mask7" mask-type="alpha" maskUnits="userSpaceOnUse" x="54" y="204" width="28" height="40">
<path d="M62.0554 209.493C64.3224 211.969 63.0487 234.024 56.7125 229.146C53.0285 236.263 63.0145 242.093 69.8937 242.548C76.773 243.003 82.9649 208.646 79.0883 211.004C75.2117 213.361 68.441 206.668 66.579 205.276C64.717 203.884 59.7885 207.018 62.0554 209.493Z" fill="#385222"/>
</mask>
<g mask="url(#mask7)">
<path d="M64.3275 206.493C67.369 208.997 69.2643 234.696 61.0767 230.055C57.8463 238.864 70.4646 244.03 78.6097 243.472C86.7549 242.914 88.742 202.219 84.5538 205.555C80.3656 208.891 71.3888 202.22 68.9892 200.904C66.5896 199.589 61.2859 203.988 64.3275 206.493Z" fill="#385222"/>
</g>
<path d="M83.5455 196.593H84.1866C76.1524 169.474 72.2311 153.887 67.7339 131.182C61.1135 143.007 47.5521 142.057 32.0507 136.751C58.7905 155.395 73.7606 168.392 83.5455 196.593Z" fill="#2A3F18"/>
<path d="M85.0412 197.861L84.6695 196.607C76.6354 169.488 72.0175 153.901 67.5202 131.196C57.6066 140.909 50.9893 141.706 38.0335 138.033C64.7733 156.677 75.2562 169.66 85.0412 197.861Z" fill="#385222"/>
<path d="M115.383 181.195C110.934 154.331 146.795 145.671 150.425 136.751C154.055 127.831 146.962 115.384 138.032 97.8628L120.511 106.41C124.73 115.987 127.776 128.631 126.494 131.196C125.211 133.76 113.85 136.824 104.272 135.469L115.383 181.195Z" fill="#385222"/>
<mask id="mask8" mask-type="alpha" maskUnits="userSpaceOnUse" x="104" y="97" width="48" height="85">
<path d="M115.383 181.195C110.934 154.331 146.795 145.671 150.425 136.751C154.055 127.831 146.962 115.384 138.032 97.8628L120.511 106.41C124.73 115.987 127.776 128.631 126.494 131.196C125.211 133.76 113.85 136.824 104.272 135.469L115.383 181.195Z" fill="#385222"/>
</mask>
<g mask="url(#mask8)">
<path d="M101.708 179.485C97.2588 152.621 133.12 143.961 136.75 135.042C140.38 126.122 133.287 113.675 124.357 96.1534L106.836 104.7C111.055 114.278 114.101 126.922 112.819 129.486C111.536 132.05 100.175 135.115 90.5967 133.76L101.708 179.485Z" fill="#2A3F18"/>
</g>
<path d="M110.345 105.284C112.054 112.976 145.387 92.0368 138.549 88.6176C131.712 85.1983 108.635 97.5919 110.345 105.284Z" fill="#253419"/>
<path d="M125.639 100.427C126.344 101.168 118.451 96.768 118.801 93.5889C119.152 90.4097 113.673 84.6098 114.955 83.7547C116.237 82.8995 122.988 91.7989 125.639 90.5922C128.29 89.3854 133.444 84.6096 133.758 85.0365C134.613 87.1732 136.322 88.4607 136.75 91.0254C137.177 93.59 136.75 97.8629 136.75 97.8629L126.494 102.563L125.639 100.427Z" fill="#FFC786" stroke="#DCAB73" stroke-width="0.3"/>
<mask id="mask9" mask-type="alpha" maskUnits="userSpaceOnUse" x="125" y="85" width="11" height="12">
<path d="M134.942 93.3755C134.942 93.3755 135.689 90.2083 135.468 88.4601C135.246 86.7119 134.201 86.4976 133.758 85.0411C133.595 84.7501 130.612 87.0134 129.186 88.0328L125.639 90.5968L129.186 95.1231L129.629 96.5795L134.942 93.3755Z" fill="#C4C4C4"/>
</mask>
<g mask="url(#mask9)">
<path d="M73.3312 103.219L177.036 30.3574C182.311 41.5624 183.701 51.3088 192.477 57.7588L82.0467 112.524C73.9192 112.646 71.956 110.564 73.3312 103.219Z" fill="#DCAB73"/>
</g>
<path d="M111.536 105.127C105.981 105.127 120.938 114.528 117.092 119.229C113.246 123.93 142.361 108.849 143.587 105.127C144.813 101.405 143.16 86.3232 139.314 88.8879C135.468 91.4525 117.092 105.127 111.536 105.127Z" fill="#385222"/>
<mask id="mask10" mask-type="alpha" maskUnits="userSpaceOnUse" x="110" y="88" width="34" height="34">
<path d="M111.536 105.128C105.981 105.128 120.938 116.24 117.092 120.941C113.246 125.642 142.361 110.561 143.587 106.839C144.813 103.117 143.16 86.324 139.314 88.8887C135.468 91.4533 117.092 105.128 111.536 105.128Z" fill="#385222"/>
</mask>
<g mask="url(#mask10)">
<path d="M101.28 107.266C95.7244 107.266 110.682 118.805 106.835 123.505C102.989 128.206 132.105 113.125 133.331 109.403C134.557 105.681 132.903 88.4624 129.057 91.0271C125.211 93.5917 106.836 107.266 101.28 107.266Z" fill="#2A3F18"/>
</g>
<path d="M96.1522 134.187C104.701 139.94 101.3 165.77 99.9982 196.152C99.8713 182.33 119.084 177.419 119.229 130.768C111.565 133.703 105.241 135.648 96.1522 134.187Z" fill="#2A3F18"/>
<path d="M92.7334 132.905C101.282 138.658 101.493 164.874 100.191 195.256C102.098 174.814 117.453 173.729 115.81 132.905C108.147 135.839 101.822 134.366 92.7334 132.905Z" fill="#385222"/>
<path d="M64.7289 125.451C76.788 129.36 83.5113 129.91 95.4274 127.528C96.6447 130.673 95.4307 140.435 90.9489 143.073C80.9756 145.441 77.1889 143.887 68.8022 139.314C71.9718 135.294 68.745 131.822 64.7289 125.451Z" fill="#FAEE30"/>
<mask id="mask11" mask-type="alpha" maskUnits="userSpaceOnUse" x="63" y="125" width="34" height="21">
<path d="M64.7288 125.451C76.7879 129.36 83.5111 129.91 95.4273 127.528C96.6446 130.673 95.4306 140.435 90.9488 143.073C80.9755 145.441 76.0295 143.928 67.6428 139.354C70.8124 135.335 68.7449 131.822 64.7288 125.451Z" fill="#FAEE30"/>
</mask>
<g mask="url(#mask11)">
<path d="M54.6512 121.719C69.335 135.332 88.6762 133.308 94.2052 130.188C99.7343 127.068 101.716 106.493 86.5496 82.0498L50.8234 88.29L44.4437 116.816L54.6512 121.719Z" fill="#E7D905"/>
</g>
<path d="M66.2382 127.776C73.503 135.895 93.9028 134.708 94.8703 135.11C95.8378 135.512 96.1195 141.887 91.8787 143.587C87.178 144.869 82.8408 144.803 74.785 143.16C70.3207 142.618 68.5384 140.953 67.602 138.032C66.6655 135.11 69.2296 133.758 66.2382 127.776Z" fill="#E7D905"/>
<path d="M88.0327 162.39C92.4762 174.971 93.7 182.502 94.0155 196.578" stroke="#385222"/>
<mask id="mask12" mask-type="alpha" maskUnits="userSpaceOnUse" x="73" y="141" width="25" height="27">
<path d="M79.0583 148.287C79.0756 142.391 80.4862 141.833 84.1864 143.159C87.434 140.219 87.7796 141.369 87.1778 145.724C89.7173 142.911 90.8994 143.531 92.7333 147.006C95.6264 146.694 96.9126 146.844 94.4427 151.707C97.0143 153.138 98.7453 153.857 94.4427 157.262C95.7005 160.946 95.0654 162.054 91.0239 161.963C91.23 164.817 92.199 167.26 87.1778 164.954C83.8482 167.416 82.0445 168.617 81.195 164.1C77.3059 164.991 76.0714 164.538 76.9216 160.681C73.4799 160.503 73.8029 159.194 75.2122 156.408C72.2604 154.316 72.4445 153.406 75.6396 152.134C74.9398 148.099 75.3354 146.817 79.0583 148.287Z" fill="#A40E05"/>
</mask>
<g mask="url(#mask12)">
<path d="M79.0583 148.287C79.0756 142.391 80.4862 141.833 84.1864 143.159C87.434 140.219 87.7796 141.369 87.1778 145.724C89.7173 142.911 90.8994 143.531 92.7333 147.006C95.6264 146.694 96.9126 146.844 94.4427 151.707C97.0143 153.138 98.7453 153.857 94.4427 157.262C95.7005 160.946 95.0654 162.054 91.0239 161.963C91.23 164.817 92.199 167.26 87.1778 164.954C83.8482 167.416 82.0445 168.617 81.195 164.1C77.3059 164.991 76.0714 164.538 76.9216 160.681C73.4799 160.503 73.8029 159.194 75.2122 156.408C72.2604 154.316 72.4445 153.406 75.6396 152.134C74.9398 148.099 75.3354 146.817 79.0583 148.287Z" fill="#2A3F18"/>
</g>
<path d="M79.913 146.578C79.9303 140.681 81.3409 140.123 85.0411 141.45C88.2887 138.51 88.6343 139.659 88.0325 144.014C90.572 141.202 91.7541 141.822 93.588 145.297C96.4811 144.985 97.7673 145.134 95.2973 149.997C97.8689 151.429 99.6 152.147 95.2973 155.553C96.5552 159.237 95.9201 160.345 91.8786 160.254C92.0847 163.108 93.0537 165.55 88.0325 163.245C84.7029 165.707 82.8991 166.907 82.0497 162.39C78.1606 163.281 76.9261 162.828 77.7763 158.972C74.3346 158.794 74.6576 157.484 76.0669 154.698C73.1151 152.607 73.2992 151.697 76.4943 150.425C75.7944 146.389 76.1901 145.108 79.913 146.578Z" fill="#A40E05"/>
<path d="M80.5388 147.206C80.5543 141.921 81.8184 141.421 85.1346 142.61C88.0451 139.975 88.3549 141.005 87.8156 144.908C90.0915 142.388 91.1509 142.944 92.7945 146.057C95.3873 145.778 96.54 145.912 94.3264 150.27C96.6311 151.553 98.1825 152.197 94.3264 155.249C95.4537 158.551 94.8846 159.544 91.2625 159.462C91.4472 162.02 92.3156 164.209 87.8156 162.143C84.8315 164.349 83.215 165.425 82.4537 161.377C78.9682 162.176 77.8618 161.77 78.6238 158.313C75.5393 158.154 75.8288 156.98 77.0918 154.483C74.4464 152.609 74.6114 151.794 77.4748 150.653C76.8477 147.037 77.2022 145.888 80.5388 147.206Z" fill="#A40E05"/>
<path d="M80.5388 147.206C80.5543 141.921 81.8184 141.421 85.1346 142.61C88.0451 139.975 88.3549 141.005 87.8156 144.908C90.0915 142.388 91.1509 142.944 92.7945 146.057C95.3873 145.778 96.54 145.912 94.3264 150.27C96.6311 151.553 98.1825 152.197 94.3264 155.249C95.4537 158.551 94.8846 159.544 91.2625 159.462C91.4472 162.02 92.3156 164.209 87.8156 162.143C84.8315 164.349 83.215 165.425 82.4537 161.377C78.9682 162.176 77.8618 161.77 78.6238 158.313C75.5393 158.154 75.8288 156.98 77.0918 154.483C74.4464 152.609 74.6114 151.794 77.4748 150.653C76.8477 147.037 77.2022 145.888 80.5388 147.206Z" fill="#840902"/>
<path d="M81.3468 148.017C81.36 143.522 82.4351 143.097 85.2554 144.108C87.7306 141.867 87.9941 142.743 87.5354 146.063C89.4709 143.919 90.3719 144.392 91.7697 147.04C93.9748 146.802 94.9551 146.916 93.0725 150.623C95.0326 151.714 96.352 152.262 93.0725 154.857C94.0312 157.665 93.5472 158.51 90.4668 158.44C90.6239 160.615 91.3625 162.477 87.5354 160.72C84.9976 162.596 83.6228 163.511 82.9754 160.069C80.0112 160.748 79.0702 160.403 79.7183 157.463C77.095 157.327 77.3412 156.329 78.4154 154.206C76.1655 152.612 76.3059 151.918 78.7411 150.949C78.2077 147.873 78.5093 146.896 81.3468 148.017Z" fill="#A40E05"/>
<path d="M81.3468 148.017C81.36 143.522 82.4351 143.097 85.2554 144.108C87.7306 141.867 87.9941 142.743 87.5354 146.063C89.4709 143.919 90.3719 144.392 91.7697 147.04C93.9748 146.802 94.9551 146.916 93.0725 150.623C95.0326 151.714 96.352 152.262 93.0725 154.857C94.0312 157.665 93.5472 158.51 90.4668 158.44C90.6239 160.615 91.3625 162.477 87.5354 160.72C84.9976 162.596 83.6228 163.511 82.9754 160.069C80.0112 160.748 79.0702 160.403 79.7183 157.463C77.095 157.327 77.3412 156.329 78.4154 154.206C76.1655 152.612 76.3059 151.918 78.7411 150.949C78.2077 147.873 78.5093 146.896 81.3468 148.017Z" fill="#670803"/>
<path d="M83.1212 149.632C83.1293 146.711 83.7893 146.435 85.5206 147.092C87.0401 145.636 87.2018 146.205 86.9202 148.362C88.1084 146.969 88.6615 147.276 89.5196 148.997C90.8732 148.843 91.475 148.917 90.3194 151.325C91.5226 152.034 92.3325 152.39 90.3194 154.077C90.9079 155.901 90.6107 156.45 88.7198 156.405C88.8162 157.818 89.2696 159.028 86.9202 157.886C85.3624 159.106 84.5184 159.7 84.121 157.463C82.3013 157.905 81.7237 157.68 82.1215 155.77C80.5112 155.682 80.6623 155.033 81.3217 153.654C79.9406 152.618 80.0267 152.167 81.5216 151.537C81.1942 149.538 81.3793 148.904 83.1212 149.632Z" fill="#A40E05"/>
<path d="M83.1212 149.632C83.1293 146.711 83.7893 146.435 85.5206 147.092C87.0401 145.636 87.2018 146.205 86.9202 148.362C88.1084 146.969 88.6615 147.276 89.5196 148.997C90.8732 148.843 91.475 148.917 90.3194 151.325C91.5226 152.034 92.3325 152.39 90.3194 154.077C90.9079 155.901 90.6107 156.45 88.7198 156.405C88.8162 157.818 89.2696 159.028 86.9202 157.886C85.3624 159.106 84.5184 159.7 84.121 157.463C82.3013 157.905 81.7237 157.68 82.1215 155.77C80.5112 155.682 80.6623 155.033 81.3217 153.654C79.9406 152.618 80.0267 152.167 81.5216 151.537C81.1942 149.538 81.3793 148.904 83.1212 149.632Z" fill="#4B0603"/>
<mask id="mask13" mask-type="alpha" maskUnits="userSpaceOnUse" x="82" y="151" width="6" height="5">
<path d="M87.178 153.417C87.178 149.998 82.0499 150.853 82.0499 153.417C82.0499 155.98 87.178 156.835 87.178 153.417Z" fill="#FFAE19"/>
</mask>
<g mask="url(#mask13)">
<path d="M87.178 153.417C87.178 149.998 82.0499 150.853 82.0499 153.417C82.0499 155.98 87.178 156.835 87.178 153.417Z" fill="#310300"/>
</g>
<path d="M88.0326 152.562C88.0326 149.144 82.9045 149.998 82.9045 152.562C82.9045 155.126 88.0326 155.98 88.0326 152.562Z" fill="#B97800"/>
<defs>
<linearGradient id="paint0_linear" x1="166.664" y1="73.0755" x2="142.305" y2="44.0162" gradientUnits="userSpaceOnUse">
<stop stop-color="#060606"/>
<stop offset="0.75172" stop-color="#BCB9B9"/>
</linearGradient>
<linearGradient id="paint1_linear" x1="203.415" y1="45.2984" x2="193.586" y2="8.97423" gradientUnits="userSpaceOnUse">
<stop stop-color="#1B1B1B"/>
<stop offset="1" stop-color="#FBF6F6"/>
</linearGradient>
</defs>
</svg>
