<svg width="298" height="141" viewBox="0 0 298 141" fill="none" xmlns="http://www.w3.org/2000/svg">
<path d="M149 5.04621L165.482 27.339L167.017 29.4149L169.298 28.2067L202.365 10.6964L199.828 32.0438L199.326 36.2682L203.474 35.3229L244.706 25.9258L227.426 42.9008L221.988 48.2427L229.608 48.0399L270.861 46.9422L242.821 58.7968L233.284 62.8288L243.499 64.5197L279.629 70.5L243.499 76.4803L233.284 78.1712L242.821 82.2032L270.861 94.0578L229.608 92.9601L221.988 92.7573L227.426 98.0992L244.706 115.074L203.474 105.677L199.326 104.732L199.828 108.956L202.365 130.304L169.298 112.793L167.017 111.585L165.482 113.661L149 135.954L132.518 113.661L130.983 111.585L128.702 112.793L95.6348 130.304L98.1721 108.956L98.6741 104.732L94.5264 105.677L53.2939 115.074L70.5745 98.0992L76.0125 92.7573L68.3924 92.9601L27.1389 94.0578L55.1791 82.2032L64.7163 78.1712L54.5008 76.4803L18.3711 70.5L54.5008 64.5197L64.7163 62.8288L55.1791 58.7968L27.1389 46.9422L68.3924 48.0399L76.0125 48.2427L70.5745 42.9008L53.2939 25.9258L94.5264 35.3229L98.6741 36.2682L98.1721 32.0438L95.6348 10.6964L128.702 28.2067L130.983 29.4149L132.518 27.339L149 5.04621Z" fill="#E14E0E" stroke="#FAEE30" stroke-width="6"/>
</svg>
